  0
SECTION
  2
HEADER
  9
$ACADVER
  1
AC1009
  9
$INSBASE
 10
0.0
 20
0.0
 30
0.0
  9
$EXTMIN
 10
0.0
 20
-0.0000000000000036
 30
0.0
  9
$EXTMAX
 10
50.0
 20
20.0
 30
0.0
  9
$LIMMIN
 10
0.0
 20
0.0
  9
$LIMMAX
 10
420.0
 20
297.0
  9
$ORTHOMODE
 70
     1
  9
$REGENMODE
 70
     1
  9
$FILLMODE
 70
     1
  9
$QTEXTMODE
 70
     0
  9
$MIRRTEXT
 70
     0
  9
$DRAGMODE
 70
     2
  9
$LTSCALE
 40
1.0
  9
$OSMODE
 70
  2743
  9
$ATTMODE
 70
     1
  9
$TEXTSIZE
 40
0.5
  9
$TRACEWID
 40
1.0
  9
$TEXTSTYLE
  7
STANDARD
  9
$CLAYER
  8
SERVERS
  9
$CELTYPE
  6
BYLAYER
  9
$CECOLOR
 62
   256
  9
$DIMSCALE
 40
1.0
  9
$DIMASZ
 40
2.5
  9
$DIMEXO
 40
0.625
  9
$DIMDLI
 40
3.75
  9
$DIMRND
 40
0.0
  9
$DIMDLE
 40
0.0
  9
$DIMEXE
 40
1.25
  9
$DIMTP
 40
0.0
  9
$DIMTM
 40
0.0
  9
$DIMTXT
 40
2.5
  9
$DIMCEN
 40
2.5
  9
$DIMTSZ
 40
0.0
  9
$DIMTOL
 70
     0
  9
$DIMLIM
 70
     0
  9
$DIMTIH
 70
     0
  9
$DIMTOH
 70
     0
  9
$DIMSE1
 70
     0
  9
$DIMSE2
 70
     0
  9
$DIMTAD
 70
     1
  9
$DIMZIN
 70
     8
  9
$DIMBLK
  1

  9
$DIMASO
 70
     1
  9
$DIMSHO
 70
     1
  9
$DIMPOST
  1

  9
$DIMAPOST
  1

  9
$DIMALT
 70
     0
  9
$DIMALTD
 70
     3
  9
$DIMALTF
 40
0.03937007874016
  9
$DIMLFAC
 40
1.0
  9
$DIMTOFL
 70
     1
  9
$DIMTVP
 40
0.0
  9
$DIMTIX
 70
     0
  9
$DIMSOXD
 70
     0
  9
$DIMSAH
 70
     0
  9
$DIMBLK1
  1

  9
$DIMBLK2
  1

  9
$DIMSTYLE
  2
ISO-25
  9
$DIMCLRD
 70
     0
  9
$DIMCLRE
 70
     0
  9
$DIMCLRT
 70
     0
  9
$DIMTFAC
 40
1.0
  9
$DIMGAP
 40
0.625
  9
$LUNITS
 70
     2
  9
$LUPREC
 70
     4
  9
$SKETCHINC
 40
1.0
  9
$FILLETRAD
 40
0.0
  9
$AUNITS
 70
     0
  9
$AUPREC
 70
     0
  9
$MENU
  1
.
  9
$ELEVATION
 40
0.0
  9
$PELEVATION
 40
0.0
  9
$THICKNESS
 40
0.0
  9
$LIMCHECK
 70
     0
  9
$BLIPMODE
 70
     0
  9
$CHAMFERA
 40
0.0
  9
$CHAMFERB
 40
0.0
  9
$SKPOLY
 70
     0
  9
$TDCREATE
 40
2459977.5088888891041279
  9
$TDUPDATE
 40
2459993.7664236109703779
  9
$TDINDWG
 40
0.3654398148
  9
$TDUSRTIMER
 40
0.3654398148
  9
$USRTIMER
 70
     1
  9
$ANGBASE
 50
0.0
  9
$ANGDIR
 70
     0
  9
$PDMODE
 70
     0
  9
$PDSIZE
 40
0.0
  9
$PLINEWID
 40
0.0
  9
$COORDS
 70
     1
  9
$SPLFRAME
 70
     0
  9
$SPLINETYPE
 70
     6
  9
$SPLINESEGS
 70
     8
  9
$ATTDIA
 70
     1
  9
$ATTREQ
 70
     1
  9
$HANDLING
 70
     1
  9
$HANDSEED
  5
67F
  9
$SURFTAB1
 70
     6
  9
$SURFTAB2
 70
     6
  9
$SURFTYPE
 70
     6
  9
$SURFU
 70
     6
  9
$SURFV
 70
     6
  9
$UCSNAME
  2

  9
$UCSORG
 10
0.0
 20
0.0
 30
0.0
  9
$UCSXDIR
 10
1.0
 20
0.0
 30
0.0
  9
$UCSYDIR
 10
0.0
 20
1.0
 30
0.0
  9
$PUCSNAME
  2

  9
$PUCSORG
 10
0.0
 20
0.0
 30
0.0
  9
$PUCSXDIR
 10
1.0
 20
0.0
 30
0.0
  9
$PUCSYDIR
 10
0.0
 20
1.0
 30
0.0
  9
$USERI1
 70
     0
  9
$USERI2
 70
     0
  9
$USERI3
 70
     0
  9
$USERI4
 70
     0
  9
$USERI5
 70
     0
  9
$USERR1
 40
0.0
  9
$USERR2
 40
0.0
  9
$USERR3
 40
0.0
  9
$USERR4
 40
0.0
  9
$USERR5
 40
0.0
  9
$WORLDVIEW
 70
     1
  9
$SHADEDGE
 70
     3
  9
$SHADEDIF
 70
    70
  9
$TILEMODE
 70
     1
  9
$MAXACTVP
 70
    64
  9
$PLIMCHECK
 70
     0
  9
$PEXTMIN
 10
0.0
 20
0.0
 30
0.0
  9
$PEXTMAX
 10
0.0
 20
0.0
 30
0.0
  9
$PLIMMIN
 10
0.0
 20
0.0
  9
$PLIMMAX
 10
12.0
 20
9.0
  9
$UNITMODE
 70
     0
  9
$VISRETAIN
 70
     1
  9
$PLINEGEN
 70
     0
  9
$PSLTSCALE
 70
     1
  0
ENDSEC
  0
SECTION
  2
TABLES
  0
TABLE
  2
VPORT
 70
     1
  0
VPORT
  2
*ACTIVE
 70
     0
 10
0.0
 20
0.0
 11
1.0
 21
1.0
 12
34.0629091829542503
 22
8.7366720268801341
 13
0.0
 23
0.0
 14
10.0
 24
10.0
 15
10.0
 25
10.0
 16
0.0
 26
0.0
 36
1.0
 17
0.0
 27
0.0
 37
0.0
 40
42.8404821723113969
 41
2.887387387387387
 42
50.0
 43
0.0
 44
0.0
 50
0.0
 51
0.0
 71
     0
 72
  1000
 73
     1
 74
     3
 75
     0
 76
     1
 77
     0
 78
     0
  0
ENDTAB
  0
TABLE
  2
LTYPE
 70
     1
  0
LTYPE
  2
CONTINUOUS
 70
     0
  3
Solid line
 72
    65
 73
     0
 40
0.0
  0
ENDTAB
  0
TABLE
  2
LAYER
 70
     9
  0
LAYER
  2
0
 70
     0
 62
     7
  6
CONTINUOUS
  0
LAYER
  2
WALLS
 70
     0
 62
     7
  6
CONTINUOUS
  0
LAYER
  2
EXITS
 70
     0
 62
     2
  6
CONTINUOUS
  0
LAYER
  2
GENERATORS
 70
     0
 62
   151
  6
CONTINUOUS
  0
LAYER
  2
TARGETS
 70
     0
 62
     3
  6
CONTINUOUS
  0
LAYER
  2
SERVERS
 70
     0
 62
   212
  6
CONTINUOUS
  0
ENDTAB
  0
TABLE
  2
STYLE
 70
     3
  0
STYLE
  2
STANDARD
 70
     0
 40
0.0
 41
1.0
 50
0.0
 71
     0
 42
0.5
  3
txt
  4

  0
STYLE
  2
ANNOTATIVE
 70
     0
 40
0.0
 41
1.0
 50
0.0
 71
     0
 42
0.2
  3
txt
  4

  0
STYLE
  2
ANOTATIVO
 70
     0
 40
0.0
 41
1.0
 50
0.0
 71
     0
 42
2.5
  3
txt
  4

  0
ENDTAB
  0
TABLE
  2
VIEW
 70
     2
  0
ENDTAB
  0
TABLE
  2
UCS
 70
     0
  0
ENDTAB
  0
TABLE
  2
APPID
 70
    15
  0
APPID
  2
ACAD
 70
     0
  0
APPID
  2
ACADANNOTATIVE
 70
     0
  0
APPID
  2
ACAD_PSEXT
 70
     0
  0
APPID
  2
ACADANNOPO
 70
     0
  0
APPID
  2
ACAD_DSTYLE_DIMJAG
 70
     0
  0
APPID
  2
ACAD_DSTYLE_DIMTALN
 70
     0
  0
APPID
  2
ACAD_MLEADERVER
 70
     0
  0
APPID
  2
ACAD_NAV_VCDISPLAY
 70
     0
  0
APPID
  2
ACAECLAYERSTANDARD
 70
     0
  0
APPID
  2
ACCMTRANSPARENCY
 70
     0
  0
APPID
  2
ACAD_EXEMPT_FROM_CAD_STANDARDS
 70
     0
  0
APPID
  2
ACAUTHENVIRON
 70
     0
  0
APPID
  2
ACDBDYNAMICBLOCKTRUENAME
 70
     0
  0
APPID
  2
ACDBDYNAMICBLOCKGUID
 70
     0
  0
APPID
  2
CONTENTBLOCKICON
 70
     0
  0
ENDTAB
  0
TABLE
  2
DIMSTYLE
 70
     4
  0
DIMSTYLE
  2
STANDARD
 70
     0
  3

  4

  5

  6

  7

 40
1.0
 41
0.18
 42
0.0625
 43
0.38
 44
0.18
 45
0.0
 46
0.0
 47
0.0
 48
0.0
140
0.18
141
0.09
142
0.0
143
25.3999999999999986
144
1.0
145
0.0
146
1.0
147
0.09
 71
     0
 72
     0
 73
     1
 74
     1
 75
     0
 76
     0
 77
     0
 78
     0
170
     0
171
     2
172
     0
173
     0
174
     0
175
     0
176
     0
177
     0
178
     0
  0
DIMSTYLE
  2
ANNOTATIVE
 70
     0
  3

  4

  5

  6

  7

 40
1.0
 41
0.18
 42
0.0625
 43
0.38
 44
0.18
 45
0.0
 46
0.0
 47
0.0
 48
0.0
140
0.18
141
0.09
142
0.0
143
25.3999999999999986
144
1.0
145
0.0
146
1.0
147
0.09
 71
     0
 72
     0
 73
     1
 74
     1
 75
     0
 76
     0
 77
     0
 78
     0
170
     0
171
     2
172
     0
173
     0
174
     0
175
     0
176
     0
177
     0
178
     0
  0
DIMSTYLE
  2
ANOTATIVO
 70
     0
  3

  4

  5

  6

  7

 40
0.0
 41
2.5
 42
0.625
 43
3.75
 44
1.25
 45
0.0
 46
0.0
 47
0.0
 48
0.0
140
2.5
141
2.5
142
0.0
143
0.03937007874016
144
1.0
145
0.0
146
1.0
147
0.625
 71
     0
 72
     0
 73
     0
 74
     0
 75
     0
 76
     0
 77
     1
 78
     8
170
     0
171
     3
172
     1
173
     0
174
     0
175
     0
176
     0
177
     0
178
     0
  0
DIMSTYLE
  2
ISO-25
 70
     0
  3

  4

  5

  6

  7

 40
1.0
 41
2.5
 42
0.625
 43
3.75
 44
1.25
 45
0.0
 46
0.0
 47
0.0
 48
0.0
140
2.5
141
2.5
142
0.0
143
0.03937007874016
144
1.0
145
0.0
146
1.0
147
0.625
 71
     0
 72
     0
 73
     0
 74
     0
 75
     0
 76
     0
 77
     1
 78
     8
170
     0
171
     3
172
     1
173
     0
174
     0
175
     0
176
     0
177
     0
178
     0
  0
ENDTAB
  0
ENDSEC
  0
SECTION
  2
BLOCKS
  0
BLOCK
  8
0
  2
$MODEL_SPACE
 70
     0
 10
0.0
 20
0.0
 30
0.0
  3
$MODEL_SPACE
  1

  0
ENDBLK
  5
3F9
  8
0
  0
BLOCK
 67
     1
  8
0
  2
$PAPER_SPACE
 70
     0
 10
0.0
 20
0.0
 30
0.0
  3
$PAPER_SPACE
  1

  0
ENDBLK
  5
3F5
 67
     1
  8
0
  0
BLOCK
  8
0
  2
PRODUCTO_1
 70
     0
 10
0.0
 20
0.0
 30
0.0
  3
PRODUCTO_1
  1

  0
CIRCLE
  5
552
  8
TARGETS
 10
6.600000000000005
 20
0.6000000000000001
 30
0.0
 40
0.4
  0
CIRCLE
  5
553
  8
TARGETS
 10
43.3999999999999773
 20
0.6000000000000001
 30
0.0
 40
0.4
  0
ENDBLK
  5
551
  8
0
  0
BLOCK
  8
0
  2
PRODUCTO_2
 70
     0
 10
0.0
 20
0.0
 30
0.0
  3
PRODUCTO_2
  1

  0
CIRCLE
  5
558
  8
TARGETS
 10
0.6000000000000071
 20
3.0
 30
0.0
 40
0.4
  0
CIRCLE
  5
559
  8
TARGETS
 10
49.3999999999999915
 20
3.0
 30
0.0
 40
0.4
  0
ENDBLK
  5
557
  8
0
  0
BLOCK
  8
0
  2
PRODUCTO_3
 70
     0
 10
0.0
 20
0.0
 30
0.0
  3
PRODUCTO_3
  1

  0
CIRCLE
  5
581
  8
TARGETS
 10
15.5999999999999996
 20
10.0
 30
0.0
 40
0.4
  0
CIRCLE
  5
582
  8
TARGETS
 10
34.3999999999999915
 20
10.0
 30
0.0
 40
0.4
  0
ENDBLK
  5
55D
  8
0
  0
BLOCK
  8
0
  2
NORMAL
 70
     0
 10
0.0
 20
0.0
 30
0.0
  3
NORMAL
  1

  0
LINE
  5
598
  8
EXITS
 10
23.5
 20
0.0
 30
0.0
 11
26.5
 21
0.0
 31
0.0
  0
ENDBLK
  5
592
  8
0
  0
BLOCK
  8
0
  2
EMERGENCY
 70
     0
 10
0.0
 20
0.0
 30
0.0
  3
EMERGENCY
  1

  0
LINE
  5
5A0
  8
EXITS
 10
23.4999999999999893
 20
20.0
 30
0.0
 11
26.4999999999999893
 21
20.0
 31
0.0
  0
ENDBLK
  5
59F
  8
0
  0
BLOCK
  8
0
  2
SLOW
 70
     0
 10
0.0
 20
0.0
 30
0.0
  3
SLOW
  1

  0
POLYLINE
  5
5A5
  8
GENERATORS
 66
     1
 10
0.0
 20
0.0
 30
0.0
  0
VERTEX
  5
662
  8
GENERATORS
 10
23.5
 20
19.8999999999999986
 30
0.0
  0
VERTEX
  5
663
  8
GENERATORS
 10
26.5
 20
19.8999999999999986
 30
0.0
  0
VERTEX
  5
664
  8
GENERATORS
 10
26.5
 20
18.8999999999999986
 30
0.0
  0
VERTEX
  5
665
  8
GENERATORS
 10
23.5
 20
18.8999999999999986
 30
0.0
  0
VERTEX
  5
666
  8
GENERATORS
 10
23.5
 20
19.8999999999999986
 30
0.0
  0
SEQEND
  5
667
  8
GENERATORS
  0
ENDBLK
  5
5A4
  8
0
  0
BLOCK
  8
0
  2
FAST
 70
     0
 10
0.0
 20
0.0
 30
0.0
  3
FAST
  1

  0
POLYLINE
  5
5B0
  8
GENERATORS
 66
     1
 10
0.0
 20
0.0
 30
0.0
  0
VERTEX
  5
669
  8
GENERATORS
 10
23.5
 20
0.0999999999999997
 30
0.0
  0
VERTEX
  5
66A
  8
GENERATORS
 10
26.5
 20
0.0999999999999997
 30
0.0
  0
VERTEX
  5
66B
  8
GENERATORS
 10
26.5
 20
1.0999999999999981
 30
0.0
  0
VERTEX
  5
66C
  8
GENERATORS
 10
23.5
 20
1.0999999999999981
 30
0.0
  0
VERTEX
  5
66D
  8
GENERATORS
 10
23.5
 20
0.0999999999999997
 30
0.0
  0
SEQEND
  5
66E
  8
GENERATORS
  0
ENDBLK
  5
5AF
  8
0
  0
BLOCK
  8
0
  2
PRODUCT1
 70
     0
 10
0.0
 20
0.0
 30
0.0
  3
PRODUCT1
  1

  0
CIRCLE
  5
5D4
  8
TARGETS
 10
15.5999999999999996
 20
10.0
 30
0.0
 40
0.4
  0
CIRCLE
  5
5D5
  8
TARGETS
 10
34.3999999999999915
 20
10.0
 30
0.0
 40
0.4
  0
CIRCLE
  5
5D6
  8
TARGETS
 10
43.3999999999999773
 20
0.5999999999999996
 30
0.0
 40
0.4
  0
CIRCLE
  5
5D7
  8
TARGETS
 10
49.3999999999999915
 20
3.0
 30
0.0
 40
0.4
  0
CIRCLE
  5
5D8
  8
TARGETS
 10
6.6000000000000041
 20
0.5999999999999996
 30
0.0
 40
0.4
  0
CIRCLE
  5
5D9
  8
TARGETS
 10
0.6000000000000086
 20
3.0
 30
0.0
 40
0.4
  0
ENDBLK
  5
5D3
  8
0
  0
BLOCK
  8
0
  2
PRODUCT2
 70
     0
 10
0.0
 20
0.0
 30
0.0
  3
PRODUCT2
  1

  0
CIRCLE
  5
5DE
  8
TARGETS
 10
15.5999999999999996
 20
15.5
 30
0.0
 40
0.4
  0
CIRCLE
  5
5DF
  8
TARGETS
 10
34.3999999999999915
 20
15.5
 30
0.0
 40
0.4
  0
ENDBLK
  5
5DD
  8
0
  0
BLOCK
  8
0
  2
CASHIER
 70
     0
 10
0.0
 20
0.0
 30
0.0
  3
CASHIER
  1

  0
POLYLINE
  5
5E8
  8
SERVERS
 66
     1
 10
0.0
 20
0.0
 30
0.0
  0
VERTEX
  5
672
  8
SERVERS
 10
1.0000000000000071
 20
19.0
 30
0.0
  0
VERTEX
  5
673
  8
SERVERS
 10
4.0000000000000071
 20
19.0
 30
0.0
  0
VERTEX
  5
674
  8
SERVERS
 10
4.0000000000000071
 20
9.9999999999999964
 30
0.0
  0
VERTEX
  5
675
  8
SERVERS
 10
1.0000000000000071
 20
9.9999999999999964
 30
0.0
  0
VERTEX
  5
676
  8
SERVERS
 10
1.0000000000000071
 20
19.0
 30
0.0
  0
SEQEND
  5
677
  8
SERVERS
  0
LINE
  5
5E9
  8
SERVERS
 10
4.800000000000006
 20
19.0
 30
0.0
 11
4.800000000000006
 21
9.9999999999999964
 31
0.0
  0
ENDBLK
  5
5E7
  8
0
  0
BLOCK
  8
0
  2
PRESENTATION
 70
     0
 10
0.0
 20
0.0
 30
0.0
  3
PRESENTATION
  1

  0
POLYLINE
  5
5F2
  8
SERVERS
 66
     1
 10
0.0
 20
0.0
 30
0.0
  0
VERTEX
  5
679
  8
SERVERS
 10
11.0
 20
19.0
 30
0.0
  0
VERTEX
  5
67A
  8
SERVERS
 10
14.0000000000000107
 20
19.0
 30
0.0
  0
VERTEX
  5
67B
  8
SERVERS
 10
14.0000000000000107
 20
9.9999999999999964
 30
0.0
  0
VERTEX
  5
67C
  8
SERVERS
 10
11.0
 20
9.9999999999999964
 30
0.0
  0
VERTEX
  5
67D
  8
SERVERS
 10
11.0
 20
19.0
 30
0.0
  0
SEQEND
  5
67E
  8
SERVERS
  0
ENDBLK
  5
5F1
  8
0
  0
ENDSEC
  0
SECTION
  2
ENTITIES
  0
POLYLINE
  5
2BF
  8
WALLS
 66
     1
 10
0.0
 20
0.0
 30
0.0
  0
VERTEX
  5
610
  8
WALLS
 10
0.0
 20
0.0
 30
0.0
  0
VERTEX
  5
611
  8
WALLS
 10
23.5
 20
0.0
 30
0.0
  0
SEQEND
  5
612
  8
WALLS
  0
LINE
  5
2C2
  8
WALLS
 10
35.0
 20
20.0
 30
0.0
 11
35.0000000000000071
 21
6.0
 31
0.0
  0
LINE
  5
2C3
  8
WALLS
 10
15.0
 20
20.0
 30
0.0
 11
15.0
 21
6.0
 31
0.0
  0
LINE
  5
2C4
  8
WALLS
 10
15.0
 20
5.9999999999999991
 30
0.0
 11
8.5000000000000036
 21
5.9999999999999991
 31
0.0
  0
LINE
  5
2C6
  8
WALLS
 10
15.0
 20
11.0
 30
0.0
 11
23.5
 21
11.0
 31
0.0
  0
LINE
  5
2C9
  8
WALLS
 10
6.5000000000000009
 20
6.0
 30
0.0
 11
0.0000000000000071
 21
6.0
 31
0.0
  0
LINE
  5
2CA
  8
WALLS
 10
50.0
 20
5.9999999999999991
 30
0.0
 11
43.5
 21
5.9999999999999991
 31
0.0
  0
LINE
  5
2CB
  8
WALLS
 10
41.5
 20
6.0
 30
0.0
 11
35.0000000000000071
 21
6.0
 31
0.0
  0
LINE
  5
2CE
  8
WALLS
 10
26.5
 20
11.0
 30
0.0
 11
35.0
 21
11.0
 31
0.0
  0
POLYLINE
  5
2D1
  8
WALLS
 66
     1
 10
0.0
 20
0.0
 30
0.0
  0
VERTEX
  5
613
  8
WALLS
 10
23.4999999999999893
 20
20.0
 30
0.0
  0
VERTEX
  5
614
  8
WALLS
 10
0.0000000000000071
 20
20.0
 30
0.0
  0
VERTEX
  5
615
  8
WALLS
 10
0.0000000000000071
 20
-0.0000000000000036
 30
0.0
  0
SEQEND
  5
616
  8
WALLS
  0
POLYLINE
  5
2D2
  8
WALLS
 66
     1
 10
0.0
 20
0.0
 30
0.0
  0
VERTEX
  5
617
  8
WALLS
 10
26.5
 20
0.0
 30
0.0
  0
VERTEX
  5
618
  8
WALLS
 10
50.0
 20
0.0
 30
0.0
  0
VERTEX
  5
619
  8
WALLS
 10
50.0
 20
20.0
 30
0.0
  0
VERTEX
  5
61A
  8
WALLS
 10
26.4999999999999893
 20
20.0
 30
0.0
  0
SEQEND
  5
61B
  8
WALLS
  0
INSERT
  5
594
  8
EXITS
  2
NORMAL
 10
0.0
 20
0.0
 30
0.0
  0
INSERT
  5
5A1
  8
EXITS
  2
EMERGENCY
 10
0.0
 20
0.0
 30
0.0
  0
INSERT
  5
5A6
  8
GENERATORS
  2
SLOW
 10
0.0
 20
0.0
 30
0.0
  0
INSERT
  5
5B1
  8
GENERATORS
  2
FAST
 10
0.0
 20
0.0
 30
0.0
  0
INSERT
  5
5DA
  8
TARGETS
  2
PRODUCT1
 10
0.0
 20
0.0
 30
0.0
  0
INSERT
  5
5E0
  8
TARGETS
  2
PRODUCT2
 10
0.0
 20
0.0
 30
0.0
  0
INSERT
  5
5EA
  8
SERVERS
  2
CASHIER
 10
0.0
 20
0.0
 30
0.0
  0
INSERT
  5
5EE
  8
SERVERS
  2
CASHIER
 10
34.9999999999999574
 20
0.0
 30
0.0
  0
INSERT
  5
5F3
  8
SERVERS
  2
PRESENTATION
 10
0.0
 20
0.0
 30
0.0
  0
INSERT
  5
5F4
  8
SERVERS
  2
PRESENTATION
 10
34.9999999999999574
 20
0.0
 30
0.0
  0
ENDSEC
  0
EOF
